HIERARCHY
ROOT hip
{
	OFFSET 0.000000 0.000000 0.000000
	CHANNELS 6 Xposition Yposition Zposition Xrotation Zrotation Yrotation 
	JOINT abdomen
	{
		OFFSET 0.000000 3.422050 0.000000
		CHANNELS 3 Xrotation Zrotation Yrotation 
		JOINT chest
		{
			OFFSET 0.000000 8.486693 -0.684411
			CHANNELS 3 Xrotation Zrotation Yrotation 
			JOINT neck
			{
				OFFSET 0.000000 10.266162 -0.273764
				CHANNELS 3 Xrotation Zrotation Yrotation 
				JOINT head
				{
					OFFSET 0.000000 3.148285 0.000000
					CHANNELS 3 Xrotation Zrotation Yrotation 
					End Site
					{
						OFFSET 0.000000 3.148289 0.000000
					}
				}
			}
			JOINT lCollar
			{
				OFFSET 3.422053 6.707223 -0.821293
				CHANNELS 3 Yrotation Zrotation Xrotation 
				JOINT lShldr
				{
					OFFSET 3.285171 0.000000 0.000000
					CHANNELS 3 Zrotation Yrotation Xrotation 
					JOINT lForeArm
					{
						OFFSET 10.129278 0.000000 0.000000
						CHANNELS 3 Yrotation Zrotation Xrotation 
						JOINT lHand
						{
							OFFSET 8.486692 0.000000 0.000000
							CHANNELS 3 Zrotation Yrotation Xrotation 
							End Site
							{
								OFFSET 4.106464 0.000000 0.000000
							}
						}
					}
				}
			}
			JOINT rCollar
			{
				OFFSET -3.558935 6.707223 -0.821293
				CHANNELS 3 Yrotation Zrotation Xrotation 
				JOINT rShldr
				{
					OFFSET -3.148289 0.000000 0.000000
					CHANNELS 3 Zrotation Yrotation Xrotation 
					JOINT rForeArm
					{
						OFFSET -10.266159 0.000000 0.000000
						CHANNELS 3 Yrotation Zrotation Xrotation 
						JOINT rHand
						{
							OFFSET -8.349810 0.000000 0.000000
							CHANNELS 3 Zrotation Yrotation Xrotation 
							End Site
							{
								OFFSET -4.106464 0.000000 0.000000
							}
						}
					}
				}
			}
		}
	}
	JOINT lThigh
	{
		OFFSET 5.338403 -1.642589 1.368821
		CHANNELS 3 Xrotation Zrotation Yrotation 
		JOINT lShin
		{
			OFFSET -2.053232 -20.121670 0.000000
			CHANNELS 3 Xrotation Zrotation Yrotation 
			JOINT lFoot
			{
				OFFSET 0.000000 -19.300380 -1.231939
				CHANNELS 3 Xrotation Yrotation Zrotation 
				End Site
				{
					OFFSET 0.000000 -2.463878 4.653993
				}
			}
		}
	}
	JOINT rThigh
	{
		OFFSET -5.338403 -1.642589 1.368821
		CHANNELS 3 Xrotation Zrotation Yrotation 
		JOINT rShin
		{
			OFFSET 2.053232 -20.121670 0.000000
			CHANNELS 3 Xrotation Zrotation Yrotation 
			JOINT rFoot
			{
				OFFSET 0.000000 -19.300380 -1.231939
				CHANNELS 3 Xrotation Yrotation Zrotation 
				End Site
				{
					OFFSET 0.000000 -2.463878 4.653993
				}
			}
		}
	}
}
MOTION
Frames: 6
Frame Time: 0.033264
0.000000 43.528500 0.000000 0.000000 0.000000 0.000000 0.000000 0.000000 0.000000 0.000000 0.000000 0.000000 0.000000 0.000000 0.000000 0.000000 0.000000 0.000000 0.000000 0.000000 0.000000 0.000000 0.000000 0.000000 0.000000 0.000000 0.000000 0.000000 0.000000 0.000000 0.000000 0.000000 0.000000 0.000000 0.000000 0.000000 0.000000 0.000000 0.000000 0.000000 0.000000 0.000000 0.000000 0.000000 0.000000 0.000000 0.000000 0.000000 0.000000 0.000000 0.000000 0.000000 0.000000 0.000000 0.000000 0.000000 0.000000 0.000000 0.000000 0.000000 
0.501617 14.635529 4.028027 0.000000 0.000000 -90.001877 16.364204 -1.198099 -0.870102 -0.885312 -0.326814 -0.429384 0.085539 0.071856 -0.222010 0.231939 0.160012 -0.442058 -6.877521 -23.638237 -0.483437 -7.892029 -14.943216 4.068500 -26.050474 -36.308224 -19.564396 33.993450 0.000606 -0.019927 3.132743 12.647969 -0.848839 51.280994 -1.105397 26.575493 25.561283 -32.561924 -14.577912 -21.122463 -16.628948 10.942393 -118.521896 27.154358 -0.296103 116.232185 5.392993 -0.580282 -0.208075 0.000000 0.000000 -118.513725 -27.174747 0.286197 116.221848 -5.428535 0.569947 -0.204582 0.029697 0.015790 
0.501617 14.824764 4.028027 -0.000011 0.443931 -90.002808 16.030947 -1.198079 -0.870033 1.404240 -0.326791 -0.429452 0.182274 0.133541 -0.445217 0.498339 0.256263 -0.893748 -7.660633 -23.077662 -1.307698 -7.892029 -14.943216 4.068500 -26.050474 -36.308224 -19.564396 34.657948 -0.533617 -1.458010 4.280676 12.983340 -1.637163 50.467731 -1.110593 26.537729 25.115122 -32.500401 -14.817679 -21.461748 -16.532633 9.223090 -118.521896 27.154358 -0.296103 115.848877 5.360697 -0.614632 -0.393563 0.050002 -0.161383 -118.513725 -27.174747 0.286197 115.839241 -5.396320 0.603946 -0.390685 -0.022174 0.178091 
0.501617 15.014000 4.028027 -0.000029 0.887968 -90.003738 15.697641 -1.198058 -0.869965 3.708961 -0.326765 -0.429520 0.278798 0.195623 -0.668390 0.764359 0.354754 -1.345642 -8.432721 -22.506102 -2.121261 -7.892029 -14.943216 4.068500 -26.050476 -36.308228 -19.564398 35.338097 -1.052718 -2.907382 5.437129 13.303839 -2.434912 49.653824 -1.116330 26.500013 24.669493 -32.437286 -15.056744 -21.805193 -16.445766 7.496716 -118.521896 27.154358 -0.296103 115.465538 5.328167 -0.648768 -0.578924 0.100530 -0.322615 -118.513741 -27.174751 0.286198 115.456604 -5.363872 0.637733 -0.576655 -0.074576 0.340235 
0.501617 15.203236 4.028027 -0.000054 1.332098 -90.004669 15.364296 -1.198038 -0.869897 6.027123 -0.326736 -0.429587 0.375109 0.258099 -0.891527 1.029969 0.455482 -1.797714 -9.193707 -21.923876 -2.924050 -7.892029 -14.943216 4.068500 -26.050476 -36.308231 -19.564398 36.033428 -1.555909 -4.367541 6.601648 13.609082 -3.241637 48.839317 -1.122608 26.462345 24.224434 -32.372604 -15.295092 -22.152363 -16.368591 5.764102 -118.521896 27.154358 -0.296103 115.082176 5.295406 -0.682689 -0.764155 0.151582 -0.483695 -118.513741 -27.174751 0.286199 115.073959 -5.331197 0.671304 -0.762488 -0.127507 0.502220 
0.501617 15.392471 4.028027 -0.000087 1.776309 -90.005600 15.030919 -1.198017 -0.869829 8.356931 -0.326704 -0.429653 0.471206 0.320969 -1.114627 1.295141 0.558443 -2.249937 -9.943526 -21.331303 -3.716006 -7.892028 -14.943216 4.068500 -26.050474 -36.308224 -19.564396 36.743427 -2.042426 -5.837934 7.773752 13.898702 -4.056860 48.024330 -1.129423 26.424761 23.779951 -32.306347 -15.532694 -22.502810 -16.301327 4.026102 -118.521896 27.154356 -0.296104 114.698822 5.262415 -0.716391 -0.949252 0.203158 -0.644618 -118.513725 -27.174747 0.286198 114.691284 -5.298293 0.704659 -0.948183 -0.180966 0.664042 
